<svg width="16" height="16" viewBox="0 0 16 16" fill="none" xmlns="http://www.w3.org/2000/svg">
<rect width="16" height="16" fill="#F5F5F5"/>
<g id="Home: Creators">
<rect width="1512" height="1700" transform="translate(-146 -734)" fill="white"/>
<g id="Group 10">
<rect id="Rectangle 3" x="-29" y="-473" width="398" height="555" rx="19" fill="white" stroke="#F5F5F5" stroke-width="2"/>
<g id="Frame 2">
<rect x="-10" y="-7" width="141" height="30" rx="15" fill="#F5F5F5"/>
<g id="Instagram" clip-path="url(#clip0_55_10972)">
<path id="Vector" d="M1.00022 1.08862C-0.25711 2.39462 0.000223672 3.78195 0.000223672 7.99662C0.000223672 12.2206 -0.10511 12.9959 0.401557 14.0466C0.82489 14.9253 1.63356 15.5853 2.58556 15.8313C3.34822 16.0273 3.85489 15.9999 7.98556 15.9999C11.4482 15.9999 12.5256 16.0619 13.4236 15.8299C14.7542 15.4866 15.8369 14.4073 15.9849 12.5253C16.0056 12.2626 16.0056 3.73528 15.9842 3.46728C15.8269 1.46262 14.5929 0.307283 12.9669 0.0732829C12.5936 0.0192829 12.5189 0.00328288 10.6069 -5.04516e-05C3.82489 0.00328288 2.33822 -0.298717 1.00022 1.08862Z" fill="url(#paint0_linear_55_10972)"/>
<path id="Vector_2" d="M7.99887 2.09262C5.5782 2.09262 3.27954 1.87728 2.40154 4.13062C2.03887 5.06128 2.09154 6.26995 2.09154 8.00062C2.09154 9.51928 2.04287 10.9466 2.40154 11.8699C3.27754 14.1246 5.59487 13.9086 7.99754 13.9086C10.3155 13.9086 12.7055 14.1499 13.5942 11.8699C13.9575 10.9299 13.9042 9.73928 13.9042 8.00062C13.9042 5.69262 14.0315 4.20262 12.9122 3.08395C11.7789 1.95062 10.2462 2.09262 7.9962 2.09262H7.99887ZM7.46954 3.15728C10.3669 3.15262 12.6769 2.75262 12.8069 5.61262C12.8549 6.67195 12.8549 9.32662 12.8069 10.3859C12.6809 13.1439 10.5809 12.8413 7.99953 12.8413C5.72487 12.8413 4.59687 12.9219 3.83687 12.1613C3.06554 11.3899 3.15754 10.2873 3.15754 7.99795C3.15754 5.28395 2.90087 3.31395 5.61287 3.18928C6.15754 3.16462 6.36887 3.15728 7.46954 3.15595V3.15728ZM11.1522 4.13795C10.7609 4.13795 10.4435 4.45528 10.4435 4.84662C10.4435 5.23795 10.7609 5.55528 11.1522 5.55528C11.5435 5.55528 11.8609 5.23795 11.8609 4.84662C11.8609 4.45528 11.5435 4.13795 11.1522 4.13795ZM7.99887 4.96662C6.32353 4.96662 4.96554 6.32528 4.96554 8.00062C4.96554 9.67595 6.32353 11.0339 7.99887 11.0339C9.6742 11.0339 11.0315 9.67595 11.0315 8.00062C11.0315 6.32528 9.6742 4.96662 7.99887 4.96662ZM7.99887 6.03128C9.0862 6.03128 9.96754 6.91328 9.96754 8.00062C9.96754 9.08795 9.0862 9.96995 7.99887 9.96995C6.91154 9.96995 6.0302 9.08795 6.0302 8.00062C6.0302 6.91262 6.91154 6.03128 7.99887 6.03128Z" fill="white"/>
</g>
</g>
</g>
</g>
<defs>
<linearGradient id="paint0_linear_55_10972" x1="1.04327" y1="14.9622" x2="15.8952" y2="2.10742" gradientUnits="userSpaceOnUse">
<stop stop-color="#FFDD55"/>
<stop offset="0.5" stop-color="#FF543E"/>
<stop offset="1" stop-color="#C837AB"/>
</linearGradient>
<clipPath id="clip0_55_10972">
<rect width="16" height="16" fill="white"/>
</clipPath>
</defs>
</svg>
