<svg width="24" height="24" viewBox="0 0 24 24" fill="none" xmlns="http://www.w3.org/2000/svg">
<g clip-path="url(#clip0_3_8)">
<path d="M1.50009 1.63305C-0.385909 3.59205 9.13776e-05 5.67305 9.13776e-05 11.995C9.13776e-05 18.331 -0.157909 19.494 0.602091 21.07C1.23709 22.388 2.45009 23.378 3.87809 23.747C5.02209 24.041 5.78209 24 11.9781 24C17.1721 24 18.7881 24.093 20.1351 23.745C22.1311 23.23 23.7551 21.611 23.9771 18.788C24.0081 18.394 24.0081 5.60305 23.9761 5.20105C23.7401 2.19405 21.8891 0.461046 19.4501 0.110046C18.8901 0.0290464 18.7781 0.0050464 15.9101 4.63985e-05C5.73709 0.0050464 3.50709 -0.447954 1.50009 1.63305Z" fill="black"/>
<path d="M11.9981 3.13905C8.36706 3.13905 4.91906 2.81605 3.60206 6.19605C3.05806 7.59205 3.13706 9.40505 3.13706 12.001C3.13706 14.279 3.06406 16.42 3.60206 17.805C4.91606 21.187 8.39206 20.863 11.9961 20.863C15.4731 20.863 19.0581 21.225 20.3911 17.805C20.9361 16.395 20.8561 14.609 20.8561 12.001C20.8561 8.53905 21.0471 6.30405 19.3681 4.62605C17.6681 2.92605 15.3691 3.13905 11.9941 3.13905H11.9981ZM11.2041 4.73605C15.5501 4.72905 19.0151 4.12905 19.2101 8.41904C19.2821 10.008 19.2821 13.99 19.2101 15.579C19.0211 19.716 15.8711 19.262 11.9991 19.262C8.58706 19.262 6.89506 19.383 5.75506 18.242C4.59806 17.085 4.73606 15.431 4.73606 11.997C4.73606 7.92605 4.35106 4.97105 8.41906 4.78405C9.23606 4.74705 9.55306 4.73605 11.2041 4.73405V4.73605ZM16.7281 6.20705C16.1411 6.20705 15.6651 6.68305 15.6651 7.27005C15.6651 7.85705 16.1411 8.33305 16.7281 8.33305C17.3151 8.33305 17.7911 7.85705 17.7911 7.27005C17.7911 6.68305 17.3151 6.20705 16.7281 6.20705ZM11.9981 7.45005C9.48506 7.45005 7.44806 9.48805 7.44806 12.001C7.44806 14.514 9.48506 16.551 11.9981 16.551C14.5111 16.551 16.5471 14.514 16.5471 12.001C16.5471 9.48805 14.5111 7.45005 11.9981 7.45005ZM11.9981 9.04705C13.6291 9.04705 14.9511 10.37 14.9511 12.001C14.9511 13.632 13.6291 14.955 11.9981 14.955C10.3671 14.955 9.04506 13.632 9.04506 12.001C9.04506 10.369 10.3671 9.04705 11.9981 9.04705Z" fill="white"/>
</g>
<defs>
<clipPath id="clip0_3_8">
<rect width="24" height="24" fill="white"/>
</clipPath>
</defs>
</svg>
