<svg width="26" height="26" viewBox="0 0 26 26" fill="none" xmlns="http://www.w3.org/2000/svg">
<path d="M22.2197 4.72858L21.2731 3.78201C21.0255 3.5341 20.7314 3.33743 20.4077 3.20325C20.084 3.06907 19.737 3 19.3866 3C19.0362 3 18.6893 3.06907 18.3656 3.20325C18.0419 3.33743 17.7478 3.5341 17.5002 3.78201L5.08152 16.2007C5.03495 16.2522 4.99672 16.3107 4.9682 16.374V16.4206L3.03508 22.12C2.99544 22.2373 2.98926 22.3633 3.01722 22.4839C3.04518 22.6046 3.10618 22.715 3.19338 22.8029C3.28058 22.8908 3.39054 22.9527 3.51093 22.9816C3.63132 23.0105 3.75738 23.0053 3.87499 22.9666L9.53437 21.0801H9.57437C9.63534 21.051 9.69153 21.0128 9.74101 20.9668L22.2197 8.5015C22.4676 8.25386 22.6642 7.95979 22.7984 7.6361C22.9326 7.31241 23.0017 6.96544 23.0017 6.61504C23.0017 6.26463 22.9326 5.91767 22.7984 5.59397C22.6642 5.27028 22.4676 4.97621 22.2197 4.72858Z" fill="#245EF5" stroke="#245EF5" stroke-width="2"/>
</svg>
