<svg width="24" height="25" viewBox="0 0 24 25" fill="none" xmlns="http://www.w3.org/2000/svg">
<path fill-rule="evenodd" clip-rule="evenodd" d="M10.6451 3.1418C11.3456 2.28607 12.6543 2.28607 13.3549 3.1418L14.2233 4.20248L15.5057 3.7181C16.5403 3.32732 17.6736 3.98163 17.8524 5.07301L18.0742 6.42579L19.427 6.64751C20.5184 6.82638 21.1727 7.95968 20.7819 8.99429L20.2975 10.2767L21.3582 11.1451C22.2139 11.8457 22.2139 13.1543 21.3582 13.8549L20.2975 14.7234L20.7819 16.0057C21.1727 17.0403 20.5184 18.1736 19.427 18.3525L18.0742 18.5742L17.8525 19.927C17.6736 21.0184 16.5403 21.6727 15.5057 21.2819L14.2233 20.7975L13.3549 21.8582C12.6543 22.7139 11.3456 22.7139 10.6451 21.8582L9.77669 20.7975L8.49428 21.2819C7.45967 21.6727 6.32638 21.0184 6.14751 19.927L5.92579 18.5742L4.57301 18.3525C3.48162 18.1736 2.82733 17.0403 3.2181 16.0057L3.70248 14.7234L2.6418 13.8549C1.78607 13.1543 1.78607 11.8457 2.6418 11.1451L3.70248 10.2767L3.2181 8.99429C2.82732 7.95968 3.48163 6.82638 4.57302 6.64751L5.92579 6.42579L6.14751 5.07301C6.32638 3.98163 7.45968 3.32732 8.49428 3.7181L9.77669 4.20248L10.6451 3.1418ZM11.3062 16.1835L17.435 10.0547L16.1968 8.81649L10.6871 14.3262L7.80398 11.4431L6.56577 12.6813L10.068 16.1835C10.2322 16.3478 10.4549 16.44 10.6871 16.44C10.9193 16.44 11.142 16.3478 11.3062 16.1835Z" fill="#245EF5"/>
</svg>
