<svg width="24" height="24" viewBox="0 0 24 24" fill="none" xmlns="http://www.w3.org/2000/svg">
<g clip-path="url(#clip0_1_14)">
<path d="M1.50003 1.63305C-0.38597 3.59205 3.03425e-05 5.67305 3.03425e-05 11.995C3.03425e-05 18.331 -0.15797 19.494 0.60203 21.07C1.23703 22.388 2.45003 23.378 3.87803 23.747C5.02203 24.041 5.78203 24 11.978 24C17.172 24 18.788 24.093 20.135 23.745C22.131 23.23 23.755 21.611 23.977 18.788C24.008 18.394 24.008 5.60305 23.976 5.20105C23.74 2.19405 21.889 0.461046 19.45 0.110046C18.89 0.0290464 18.778 0.0050464 15.91 4.63985e-05C5.73703 0.0050464 3.50703 -0.447954 1.50003 1.63305Z" fill="black"/>
<path d="M18.3586 5.70121C16.7337 4.07496 14.5728 3.17889 12.2704 3.17798C7.52662 3.17798 3.66574 7.03738 3.66384 11.7812C3.66323 13.2976 4.05953 14.7778 4.81267 16.0825L3.59167 20.541L8.15414 19.3446C9.41123 20.03 10.8265 20.3912 12.267 20.3918H12.2705C17.0139 20.3918 20.8751 16.532 20.877 11.7881C20.8779 9.48916 19.9836 7.32747 18.3586 5.70121ZM12.2705 18.9387H12.2676C10.984 18.9382 9.72503 18.5935 8.62673 17.942L8.36549 17.787L5.65807 18.497L6.38074 15.8581L6.2106 15.5875C5.49454 14.449 5.11635 13.133 5.11692 11.7818C5.11846 7.83892 8.3275 4.6311 12.2733 4.6311C14.1839 4.63183 15.98 5.37667 17.3306 6.72834C18.6812 8.08 19.4246 9.87674 19.4239 11.7875C19.4223 15.7307 16.2133 18.9387 12.2705 18.9387ZM16.1943 13.5829C15.9792 13.4753 14.922 12.9552 14.7249 12.8835C14.5278 12.8117 14.3844 12.7758 14.241 12.9911C14.0977 13.2063 13.6856 13.6905 13.5601 13.834C13.4346 13.9775 13.3092 13.9954 13.0942 13.8878C12.8791 13.7802 12.1862 13.5532 11.3648 12.8208C10.7255 12.2508 10.2939 11.5468 10.1685 11.3315C10.043 11.1163 10.1551 11 10.2628 10.8928C10.3595 10.7965 10.4778 10.6417 10.5854 10.5161C10.6929 10.3906 10.7287 10.3009 10.8004 10.1575C10.8721 10.014 10.8362 9.88842 10.7825 9.78081C10.7287 9.67321 10.2986 8.61506 10.1194 8.18463C9.94488 7.76542 9.76755 7.82214 9.63555 7.81556C9.51025 7.80932 9.36674 7.80801 9.2234 7.80801C9.08006 7.80801 8.84707 7.8618 8.64996 8.07703C8.45285 8.29225 7.89731 8.81235 7.89731 9.87049C7.89731 10.9286 8.66786 11.9509 8.77539 12.0944C8.88292 12.2378 10.2918 14.4093 12.449 15.3405C12.9621 15.562 13.3627 15.6943 13.675 15.7934C14.1901 15.9569 14.6589 15.9339 15.0295 15.8785C15.4427 15.8168 16.3018 15.3585 16.481 14.8563C16.6602 14.3541 16.6602 13.9237 16.6065 13.834C16.5527 13.7444 16.4094 13.6905 16.1943 13.5829Z" fill="white"/>
</g>
<defs>
<clipPath id="clip0_1_14">
<rect width="24" height="24" fill="white"/>
</clipPath>
</defs>
</svg>
