<svg width="16" height="16" viewBox="0 0 16 16" fill="none" xmlns="http://www.w3.org/2000/svg">
<g clip-path="url(#clip0_57_20473)">
<path d="M1.00022 1.08862C-0.25711 2.39462 0.000223672 3.78195 0.000223672 7.99662C0.000223672 12.2206 -0.10511 12.9959 0.401557 14.0466C0.82489 14.9253 1.63356 15.5853 2.58556 15.8313C3.34822 16.0273 3.85489 15.9999 7.98556 15.9999C11.4482 15.9999 12.5256 16.0619 13.4236 15.8299C14.7542 15.4866 15.8369 14.4073 15.9849 12.5253C16.0056 12.2626 16.0056 3.73528 15.9842 3.46728C15.8269 1.46262 14.5929 0.307283 12.9669 0.0732829C12.5936 0.0192829 12.5189 0.00328288 10.6069 -5.04516e-05C3.82489 0.00328288 2.33822 -0.298717 1.00022 1.08862Z" fill="#FD3832"/>
<path fill-rule="evenodd" clip-rule="evenodd" d="M4.43368 10.9568C4.27375 10.9083 4.12782 10.8221 4.00822 10.7054C3.88861 10.5886 3.79883 10.4449 3.74646 10.2862C3.44719 9.46596 3.35851 6.04095 3.93489 5.36481C4.12672 5.14486 4.39756 5.00944 4.68861 4.98795C6.23486 4.82169 11.0121 4.84386 11.5608 5.04337C11.7151 5.09344 11.8561 5.17778 11.9732 5.29007C12.0903 5.40237 12.1805 5.5397 12.2369 5.6918C12.5639 6.53973 12.575 9.62113 12.1926 10.4358C12.0912 10.6479 11.9213 10.8197 11.7104 10.9235C11.1341 11.2117 5.19849 11.2062 4.43368 10.9568ZM6.88882 9.34957L9.65986 7.90863L6.88882 6.4566V9.34957Z" fill="white"/>
</g>
<defs>
<clipPath id="clip0_57_20473">
<rect width="16" height="16" fill="white"/>
</clipPath>
</defs>
</svg>
